<svg width="18" height="19" viewBox="0 0 18 19" fill="none" xmlns="http://www.w3.org/2000/svg">
<g clip-path="url(#clip0_123_2646)">
<path d="M17.1209 0.500019C17.2948 0.499987 17.4647 0.551516 17.6093 0.648088C17.7539 0.744663 17.8666 0.881941 17.9331 1.04256C17.9996 1.20318 18.017 1.37992 17.9831 1.55044C17.9492 1.72095 17.8654 1.87757 17.7425 2.00049L1.50029 18.2427C1.33545 18.4075 1.11186 18.5001 0.878731 18.5001C0.645599 18.5001 0.422018 18.4075 0.257168 18.2427C0.0923195 18.0778 -0.000291824 17.8542 -0.000291824 17.6211C-0.000291824 17.388 0.0923195 17.1644 0.257168 16.9995L16.4994 0.757364C16.5809 0.675646 16.6778 0.610844 16.7845 0.566681C16.8911 0.522518 17.0055 0.499865 17.1209 0.500019Z" fill="white"/>
<path d="M0.878788 0.500019C0.994236 0.499865 1.10858 0.522518 1.21524 0.566681C1.32191 0.610844 1.4188 0.675646 1.50035 0.757364L17.7425 16.9995C17.9074 17.1644 18 17.388 18 17.6211C18 17.8542 17.9074 18.0778 17.7425 18.2427C17.5777 18.4075 17.3541 18.5001 17.121 18.5001C16.8878 18.5001 16.6643 18.4075 16.4994 18.2427L0.257227 2.00049C0.134275 1.87757 0.0505409 1.72095 0.0166149 1.55044C-0.0173111 1.37992 9.53674e-05 1.20318 0.0666313 1.04256C0.133167 0.881941 0.245844 0.744663 0.390409 0.648088C0.534975 0.551516 0.704933 0.499987 0.878788 0.500019Z" fill="white"/>
</g>
<defs>
<clipPath id="clip0_123_2646">
<rect width="18" height="18" fill="white" transform="translate(18 18.5) rotate(-180)"/>
</clipPath>
</defs>
</svg>
