<svg width="24" height="16" viewBox="0 0 24 16" fill="none" xmlns="http://www.w3.org/2000/svg">
<rect y="0.5" width="1" height="15" rx="0.5" fill="#F8C2BE"/>
<g clip-path="url(#clip0_118_995)">
<path d="M23.3651 1.50005C23.4907 1.50002 23.6134 1.53724 23.7178 1.60699C23.8222 1.67673 23.9036 1.77588 23.9517 1.89188C23.9997 2.00788 24.0123 2.13553 23.9878 2.25868C23.9633 2.38183 23.9028 2.49494 23.814 2.58372L12.0835 14.3142C11.9645 14.4332 11.803 14.5001 11.6346 14.5001C11.4663 14.5001 11.3048 14.4332 11.1857 14.3142C11.0667 14.1951 10.9998 14.0336 10.9998 13.8653C10.9998 13.6969 11.0667 13.5354 11.1857 13.4164L22.9162 1.68591C22.9751 1.62689 23.0451 1.58009 23.1221 1.54819C23.1992 1.51629 23.2817 1.49993 23.3651 1.50005Z" fill="#D13227"/>
<path d="M11.6347 1.50005C11.7181 1.49993 11.8006 1.51629 11.8777 1.54819C11.9547 1.58009 12.0247 1.62689 12.0836 1.68591L23.8141 13.4164C23.9331 13.5354 24 13.6969 24 13.8653C24 14.0336 23.9331 14.1951 23.8141 14.3142C23.695 14.4332 23.5335 14.5001 23.3652 14.5001C23.1968 14.5001 23.0353 14.4332 22.9162 14.3142L11.1858 2.58372C11.097 2.49494 11.0365 2.38183 11.012 2.25868C10.9875 2.13553 11.0001 2.00788 11.0481 1.89188C11.0962 1.77588 11.1776 1.67673 11.282 1.60699C11.3864 1.53724 11.5091 1.50002 11.6347 1.50005Z" fill="#D13227"/>
</g>
<defs>
<clipPath id="clip0_118_995">
<rect width="13" height="13" fill="white" transform="translate(24 14.5) rotate(-180)"/>
</clipPath>
</defs>
</svg>
