<svg width="64" height="64" viewBox="0 0 64 64" fill="none" xmlns="http://www.w3.org/2000/svg">
<path d="M32 2C26.0666 2 20.2664 3.75947 15.3329 7.05591C10.3994 10.3524 6.55426 15.0377 4.28363 20.5195C2.013 26.0013 1.4189 32.0333 2.57646 37.8527C3.73401 43.6721 6.59124 49.0176 10.7868 53.2132C14.9824 57.4088 20.3279 60.266 26.1473 61.4236C31.9667 62.5811 37.9987 61.987 43.4805 59.7164C48.9623 57.4458 53.6477 53.6006 56.9441 48.6671C60.2406 43.7336 62 37.9334 62 32C62 24.0435 58.8393 16.4129 53.2132 10.7868C47.5871 5.16071 39.9565 2 32 2ZM32 58C26.8577 58 21.8309 56.4751 17.5552 53.6182C13.2795 50.7613 9.94703 46.7006 7.97915 41.9498C6.01127 37.1989 5.49638 31.9712 6.4996 26.9277C7.50281 21.8841 9.97907 17.2514 13.6152 13.6152C17.2514 9.97906 21.8842 7.5028 26.9277 6.49958C31.9712 5.49637 37.1989 6.01125 41.9498 7.97913C46.7007 9.94701 50.7613 13.2795 53.6182 17.5552C56.4752 21.8309 58 26.8577 58 32C58 38.8956 55.2607 45.5088 50.3848 50.3848C45.5089 55.2607 38.8957 58 32 58Z" fill="#D13227"/>
<path d="M30 16H34V40H30V16Z" fill="#D13227"/>
<path d="M30 44H34V48H30V44Z" fill="#D13227"/>
</svg>
