<svg width="18" height="19" viewBox="0 0 18 19" fill="none" xmlns="http://www.w3.org/2000/svg">
<g clip-path="url(#clip0_123_2630)">
<path d="M11.9336 9.59224L18.0018 13.4285V5.59399L11.9336 9.59224Z" fill="white"/>
<path d="M0 5.59399V13.4285L6.06825 9.59224L0 5.59399Z" fill="white"/>
<path d="M16.8764 3.3125H1.12641C0.565031 3.3125 0.119531 3.731 0.0351562 4.26988L9.00141 10.1773L17.9677 4.26988C17.8833 3.731 17.4378 3.3125 16.8764 3.3125Z" fill="white"/>
<path d="M10.9004 10.2718L9.30853 11.3203C9.21403 11.3821 9.10716 11.4125 8.99916 11.4125C8.89116 11.4125 8.78428 11.3821 8.68978 11.3203L7.09791 10.2706L0.0351562 14.738C0.121781 15.2724 0.565031 15.6875 1.12416 15.6875H16.8742C17.4333 15.6875 17.8765 15.2724 17.9632 14.738L10.9004 10.2718Z" fill="white"/>
</g>
<defs>
<clipPath id="clip0_123_2630">
<rect width="18" height="18" fill="white" transform="translate(0 0.5)"/>
</clipPath>
</defs>
</svg>
