<svg width="29" height="29" viewBox="0 0 29 29" fill="none" xmlns="http://www.w3.org/2000/svg">
<path d="M21.2702 14.6585C21.189 14.5755 21.0921 14.5095 20.9851 14.4644C20.8781 14.4192 20.7632 14.3958 20.6471 14.3955C20.531 14.3951 20.416 14.4179 20.3087 14.4625C20.2015 14.5071 20.1043 14.5726 20.0226 14.6552C19.9409 14.7377 19.8765 14.8357 19.8331 14.9434C19.7897 15.0511 19.7682 15.1664 19.7698 15.2825C19.7714 15.3986 19.7961 15.5132 19.8424 15.6197C19.8888 15.7262 19.9559 15.8223 20.0398 15.9026C20.7821 16.6331 21.3711 17.5045 21.7721 18.4657C22.1731 19.4269 22.3781 20.4585 22.375 21.5C22.375 22.5702 19.3074 24.125 14.5 24.125C9.69271 24.125 6.62504 22.5694 6.62504 21.4982C6.6221 20.4639 6.82434 19.4393 7.22007 18.4836C7.61581 17.528 8.19716 16.6603 8.93049 15.9309C9.01344 15.85 9.0795 15.7535 9.12484 15.6469C9.17019 15.5403 9.19391 15.4258 9.19465 15.3099C9.19538 15.1941 9.17311 15.0793 9.12912 14.9721C9.08513 14.8649 9.02029 14.7676 8.93838 14.6857C8.85647 14.6037 8.75911 14.5389 8.65195 14.4949C8.54479 14.4509 8.42996 14.4287 8.31412 14.4294C8.19828 14.4301 8.08374 14.4539 7.97715 14.4992C7.87055 14.5445 7.77402 14.6106 7.69316 14.6936C6.79665 15.5853 6.08596 16.6461 5.60222 17.8145C5.11849 18.9828 4.87132 20.2355 4.87504 21.5C4.87504 24.3417 9.83367 25.875 14.5 25.875C19.1664 25.875 24.125 24.3417 24.125 21.5C24.1289 20.227 23.8784 18.966 23.3881 17.7911C22.8979 16.6163 22.1778 15.5512 21.2702 14.6585Z" fill="white"/>
<path d="M14.5 15.375C15.7114 15.375 16.8956 15.0158 17.9029 14.3428C18.9101 13.6697 19.6952 12.7131 20.1588 11.5939C20.6224 10.4747 20.7436 9.24321 20.5073 8.05507C20.271 6.86694 19.6876 5.77557 18.831 4.91897C17.9744 4.06238 16.8831 3.47903 15.6949 3.24269C14.5068 3.00636 13.2753 3.12765 12.1561 3.59124C11.0369 4.05483 10.0803 4.83988 9.40725 5.84713C8.73422 6.85438 8.375 8.03859 8.375 9.25C8.37688 10.8739 9.02279 12.4307 10.171 13.579C11.3193 14.7272 12.8761 15.3731 14.5 15.375ZM14.5 4.875C15.3653 4.875 16.2112 5.13159 16.9306 5.61232C17.6501 6.09305 18.2108 6.77634 18.542 7.57576C18.8731 8.37519 18.9597 9.25485 18.7909 10.1035C18.6221 10.9522 18.2054 11.7317 17.5936 12.3436C16.9817 12.9554 16.2022 13.3721 15.3535 13.5409C14.5049 13.7097 13.6252 13.6231 12.8258 13.292C12.0263 12.9608 11.3431 12.4001 10.8623 11.6806C10.3816 10.9612 10.125 10.1153 10.125 9.25C10.1264 8.0901 10.5877 6.97809 11.4079 6.15792C12.2281 5.33774 13.3401 4.87637 14.5 4.875Z" fill="white"/>
</svg>
