<svg width="13" height="13" viewBox="0 0 13 13" fill="none" xmlns="http://www.w3.org/2000/svg">
<g clip-path="url(#clip0_163_1628)">
<path d="M12.3656 9.91821e-05C12.4912 7.62939e-05 12.6139 0.0372915 12.7183 0.107038C12.8227 0.176785 12.9041 0.275931 12.9522 0.391934C13.0002 0.507937 13.0128 0.635586 12.9883 0.758734C12.9638 0.881882 12.9033 0.994996 12.8145 1.08377L1.08403 12.8142C0.964977 12.9333 0.803501 13.0002 0.635128 13.0002C0.466756 13.0002 0.305279 12.9333 0.186222 12.8142C0.0671644 12.6952 0.000277519 12.5337 0.000277519 12.3653C0.000277519 12.197 0.0671644 12.0355 0.186222 11.9164L11.9167 0.185959C11.9756 0.126941 12.0456 0.0801392 12.1226 0.0482435C12.1996 0.0163479 12.2822 -1.33514e-05 12.3656 9.91821e-05Z" fill="white"/>
<path d="M0.63517 9.91821e-05C0.718549 -1.33514e-05 0.801128 0.0163479 0.878165 0.0482435C0.955203 0.0801392 1.02518 0.126941 1.08408 0.185959L12.8145 11.9164C12.9336 12.0355 13.0005 12.197 13.0005 12.3653C13.0005 12.5337 12.9336 12.6952 12.8145 12.8142C12.6955 12.9333 12.534 13.0002 12.3656 13.0002C12.1973 13.0002 12.0358 12.9333 11.9167 12.8142L0.186264 1.08377C0.0974665 0.994996 0.0369921 0.881882 0.0124893 0.758734C-0.0120134 0.635586 0.000557899 0.507937 0.0486116 0.391934C0.0966654 0.275931 0.178043 0.176785 0.282452 0.107038C0.38686 0.0372915 0.509608 7.62939e-05 0.63517 9.91821e-05Z" fill="white"/>
</g>
<defs>
<clipPath id="clip0_163_1628">
<rect width="13" height="13" fill="white" transform="translate(13 13) rotate(-180)"/>
</clipPath>
</defs>
</svg>
