<svg width="20" height="20" viewBox="0 0 20 20" fill="none" xmlns="http://www.w3.org/2000/svg">
<g clip-path="url(#clip0_163_2163)">
<path d="M13.3308 10.2093C13.0846 10.1583 12.8273 10.0466 12.5846 9.87137C11.8867 9.36656 11.577 8.53766 11.8935 8.01906C12.2376 7.45494 13.179 7.49287 13.9024 8.13488C14.5941 8.73214 14.7417 9.35622 14.7417 10.0121C14.7417 10.4755 14.5935 11.3031 13.688 12.0217C13.2605 11.6914 12.7508 11.4196 12.1722 11.2231L12.1645 11.2203C12.6091 11.035 13.1886 10.6694 13.3308 10.2093ZM13.4425 8.61417C13.4425 8.42038 13.2881 8.26457 13.0977 8.26457C12.9074 8.26457 12.7528 8.42112 12.7528 8.6149C12.7528 8.80869 12.9074 8.9645 13.0977 8.9645C13.288 8.9645 13.4425 8.80796 13.4425 8.61417Z" fill="#2C5F8D"/>
<path d="M5.2456 10.0128C5.24767 9.35622 5.39456 8.73214 6.08691 8.13488C6.80973 7.49352 7.75173 7.45421 8.0959 8.01906C8.41175 8.53767 8.10279 9.36661 7.40493 9.87138C7.16213 10.0466 6.90486 10.1583 6.6587 10.2093C6.74422 10.4858 7.00421 10.7672 7.4007 11.0044C7.94594 11.3299 8.24046 11.3701 11.7289 12.5285C13.0199 12.9671 13.7881 13.8388 13.7881 14.8602C13.7881 15.5877 13.4164 16.1491 12.8999 16.5602C12.5751 16.2257 12.1695 15.9354 11.6957 15.7029C12.2412 15.4271 12.4096 15.2181 12.4096 14.8602C12.4096 14.2694 11.2287 13.9317 10.684 13.7519V15.2471L9.30474 14.6319V13.7526C8.75915 13.9333 7.58134 14.2706 7.58134 14.8602C7.58134 15.841 10.3898 16.4194 11.5847 17.2436C12.1646 17.6456 12.4765 18.1567 12.4765 18.7573C12.4765 19.1021 12.4364 19.5297 11.831 19.9545C11.6593 20.0917 11.4207 19.8913 11.5323 19.6986C11.9323 18.8979 11.5075 18.498 10.6827 18.1518V19.309C10.6827 19.6896 10.3737 19.9986 9.99303 19.9986C9.61236 19.9986 9.3034 19.6896 9.3034 19.309V18.1524C8.51106 18.4848 8.01237 18.9545 8.45584 19.6986C8.56575 19.8876 8.33171 20.0933 8.15792 19.9545C7.57173 19.5103 7.52553 19.1297 7.52553 18.7663C7.52553 18.207 7.83168 17.6643 8.4124 17.2484C7.2386 16.8243 6.20005 16.1105 6.20005 14.8616C6.20005 13.9988 6.74822 13.243 7.69582 12.7644C7.25317 12.6051 7.03041 12.4982 6.73456 12.3217C5.4387 11.5472 5.2456 10.5424 5.2456 10.0128ZM6.89102 8.96451C7.08145 8.96451 7.23584 8.80796 7.23584 8.61417C7.23584 8.42039 7.08145 8.26384 6.89102 8.26384C6.70077 8.26384 6.54621 8.42039 6.54621 8.61417C6.54621 8.80796 6.70073 8.96451 6.89102 8.96451Z" fill="#2C5F8D"/>
<path d="M0.34527 1.3806H5.06822C5.99474 1.3806 6.69002 1.79016 7.28815 2.38833C7.93795 3.03813 8.27583 4.48261 9.3105 4.48261V2.56724C8.89991 2.32833 8.62086 1.88856 8.62086 1.37927C8.62086 0.617523 9.23834 0 10.0001 0C10.7619 0 11.3794 0.617523 11.3794 1.37927C11.3794 1.88852 11.1004 2.32829 10.6898 2.56724V10.7862C10.2641 10.6504 9.79699 10.5008 9.3105 10.3445V6.89012C9.01128 6.74 8.76987 6.49729 8.62181 6.19691C8.38195 6.6069 7.92593 6.89767 7.41763 6.89767C6.90208 6.89767 6.45792 6.61142 6.22129 6.19252C5.41338 7.00046 3.91171 7.01602 3.1038 6.20812L4.27575 5.03617L3.73813 5.25888C2.68248 5.69615 1.47226 5.19483 1.0349 4.13918L2.69981 3.44954C1.08693 3.4495 0.34527 2.43742 0.34527 1.3806Z" fill="#2C5F8D"/>
<path d="M12.7119 2.38834C13.31 1.79017 14.0053 1.38062 14.9318 1.38062H19.6548C19.6548 2.43739 18.9131 3.44951 17.3002 3.44951L18.9652 4.13915C18.5278 5.1948 17.3176 5.69608 16.2619 5.25885L15.7243 5.03614L16.8963 6.20809C16.0883 7.01604 14.5867 7.00048 13.7788 6.19249C13.5421 6.61144 13.098 6.89768 12.5824 6.89768C12.5773 6.89768 12.5723 6.89764 12.5672 6.89759C11.8933 6.88992 11.3782 6.28123 11.3782 5.60738V4.21992C11.9218 3.77394 12.2331 2.86712 12.7119 2.38834Z" fill="#2C5F8D"/>
</g>
<defs>
<clipPath id="clip0_163_2163">
<rect width="20" height="20" fill="white" transform="matrix(-1 0 0 1 20 0)"/>
</clipPath>
</defs>
</svg>
