<svg width="25" height="26" viewBox="0 0 25 26" fill="none" xmlns="http://www.w3.org/2000/svg">
<path d="M7.0292 24.7156C5.8292 24.7156 4.6292 24.2586 3.71592 23.3453C1.88858 21.5172 1.88858 18.5438 3.71592 16.7164L11.8487 8.62969C13.0698 7.41641 15.0104 7.37656 16.1769 8.54141C16.7464 9.11094 17.0464 9.87969 17.0222 10.707C16.9979 11.5164 16.6644 12.2836 16.0823 12.8656L8.36436 20.5836C8.05889 20.8891 7.56514 20.8891 7.25967 20.5836C6.9542 20.2781 6.9542 19.7844 7.25967 19.4789L14.9776 11.7609C15.2769 11.4617 15.4487 11.0711 15.4604 10.6609C15.4722 10.2687 15.3339 9.90781 15.0722 9.64609C14.5136 9.08984 13.562 9.12969 12.9511 9.7375L4.81905 17.8227C3.60264 19.0398 3.60264 21.0227 4.82061 22.2406C6.03936 23.4586 8.02139 23.4586 9.24014 22.2406L20.4979 10.8492C21.387 9.96016 21.8745 8.78359 21.8745 7.53125C21.8745 6.27891 21.387 5.10234 20.5019 4.21719C19.6159 3.33125 18.4394 2.84375 17.187 2.84375C15.9347 2.84375 14.7581 3.33125 13.8722 4.21719L2.89405 15.1172C2.58702 15.4211 2.09327 15.4195 1.78936 15.1125C1.48545 14.8063 1.48702 14.3125 1.79327 14.0078L12.7698 3.11016C13.9479 1.93125 15.5175 1.28125 17.187 1.28125C18.8565 1.28125 20.4261 1.93125 21.6065 3.1125C22.787 4.29219 23.437 5.86172 23.437 7.53125C23.437 9.20078 22.787 10.7703 21.6065 11.9508L10.3487 23.3422C9.43311 24.2578 8.23076 24.7156 7.0292 24.7156Z" fill="#2C5F8D"/>
</svg>
