<svg width="13" height="14" viewBox="0 0 13 14" fill="none" xmlns="http://www.w3.org/2000/svg">
<g clip-path="url(#clip0_163_1296)">
<path d="M12.3651 0.500046C12.4907 0.500023 12.6134 0.537238 12.7178 0.606985C12.8222 0.676732 12.9036 0.775878 12.9517 0.891881C12.9997 1.00788 13.0123 1.13553 12.9878 1.25868C12.9633 1.38183 12.9028 1.49494 12.814 1.58372L1.08355 13.3142C0.964489 13.4332 0.803013 13.5001 0.63464 13.5001C0.466268 13.5001 0.30479 13.4332 0.185734 13.3142C0.0666761 13.1951 -0.000210762 13.0336 -0.000210762 12.8653C-0.000210762 12.6969 0.0666761 12.5354 0.185734 12.4164L11.9162 0.685905C11.9751 0.626887 12.0451 0.580086 12.1221 0.54819C12.1992 0.516294 12.2817 0.499933 12.3651 0.500046Z" fill="#D13227"/>
<path d="M0.634682 0.500046C0.71806 0.499933 0.80064 0.516294 0.877677 0.54819C0.954715 0.580086 1.02469 0.626887 1.08359 0.685905L12.8141 12.4164C12.9331 12.5354 13 12.6969 13 12.8653C13 13.0336 12.9331 13.1951 12.8141 13.3142C12.695 13.4332 12.5335 13.5001 12.3652 13.5001C12.1968 13.5001 12.0353 13.4332 11.9162 13.3142L0.185776 1.58372C0.0969782 1.49494 0.0365038 1.38183 0.012001 1.25868C-0.0125017 1.13553 6.96182e-05 1.00788 0.0481234 0.891881C0.0961771 0.775878 0.177555 0.676732 0.281963 0.606985C0.386372 0.537238 0.50912 0.500023 0.634682 0.500046Z" fill="#D13227"/>
</g>
<defs>
<clipPath id="clip0_163_1296">
<rect width="13" height="13" fill="white" transform="translate(13 13.5) rotate(-180)"/>
</clipPath>
</defs>
</svg>
