<svg width="24" height="15" viewBox="0 0 24 15" fill="none" xmlns="http://www.w3.org/2000/svg">
<rect width="1" height="15" rx="0.5" fill="#4D82B3"/>
<g clip-path="url(#clip0_113_439)">
<path d="M23.3651 1.00005C23.4907 1.00002 23.6134 1.03724 23.7178 1.10699C23.8222 1.17673 23.9036 1.27588 23.9517 1.39188C23.9997 1.50788 24.0123 1.63553 23.9878 1.75868C23.9633 1.88183 23.9028 1.99494 23.814 2.08372L12.0835 13.8142C11.9645 13.9332 11.803 14.0001 11.6346 14.0001C11.4663 14.0001 11.3048 13.9332 11.1857 13.8142C11.0667 13.6951 10.9998 13.5336 10.9998 13.3653C10.9998 13.1969 11.0667 13.0354 11.1857 12.9164L22.9162 1.18591C22.9751 1.12689 23.0451 1.08009 23.1221 1.04819C23.1992 1.01629 23.2817 0.999933 23.3651 1.00005Z" fill="#2C5F8D"/>
<path d="M11.6347 1.00005C11.7181 0.999933 11.8006 1.01629 11.8777 1.04819C11.9547 1.08009 12.0247 1.12689 12.0836 1.18591L23.8141 12.9164C23.9331 13.0354 24 13.1969 24 13.3653C24 13.5336 23.9331 13.6951 23.8141 13.8142C23.695 13.9332 23.5335 14.0001 23.3652 14.0001C23.1968 14.0001 23.0353 13.9332 22.9162 13.8142L11.1858 2.08372C11.097 1.99494 11.0365 1.88183 11.012 1.75868C10.9875 1.63553 11.0001 1.50788 11.0481 1.39188C11.0962 1.27588 11.1776 1.17673 11.282 1.10699C11.3864 1.03724 11.5091 1.00002 11.6347 1.00005Z" fill="#2C5F8D"/>
</g>
<defs>
<clipPath id="clip0_113_439">
<rect width="13" height="13" fill="white" transform="translate(24 14) rotate(-180)"/>
</clipPath>
</defs>
</svg>
