<svg width="26" height="26" viewBox="0 0 26 26" fill="none" xmlns="http://www.w3.org/2000/svg">
<path d="M17.1602 24.1042H8.84024C8.00783 24.0921 7.21064 23.7663 6.60808 23.1919C6.00552 22.6174 5.64201 21.8367 5.59024 21.0058L4.6044 6.0125C4.59935 5.90379 4.6159 5.79516 4.65309 5.69289C4.69028 5.59062 4.74737 5.49673 4.82107 5.41666C4.897 5.33368 4.98892 5.26691 5.09132 5.22037C5.19371 5.17383 5.30446 5.14847 5.4169 5.14583H20.5836C20.695 5.14558 20.8053 5.16825 20.9075 5.21243C21.0098 5.2566 21.1019 5.32135 21.1781 5.40263C21.2543 5.48391 21.313 5.57999 21.3505 5.68491C21.388 5.78982 21.4035 5.90133 21.3961 6.0125L20.4536 21.0058C20.4012 21.8441 20.0316 22.631 19.4199 23.2066C18.8081 23.7821 18.0002 24.103 17.1602 24.1042ZM6.3269 6.77083L7.16107 20.9083C7.18863 21.3346 7.37764 21.7344 7.6896 22.0262C8.00157 22.3181 8.41304 22.4801 8.84024 22.4792H17.1602C17.5867 22.4775 17.9967 22.3147 18.3081 22.0233C18.6196 21.732 18.8093 21.3337 18.8394 20.9083L19.7169 6.825L6.3269 6.77083Z" fill="white"/>
<path d="M22.75 6.77083H3.25C3.03451 6.77083 2.82785 6.68523 2.67548 6.53286C2.5231 6.38048 2.4375 6.17382 2.4375 5.95833C2.4375 5.74284 2.5231 5.53618 2.67548 5.38381C2.82785 5.23143 3.03451 5.14583 3.25 5.14583H22.75C22.9655 5.14583 23.1721 5.23143 23.3245 5.38381C23.4769 5.53618 23.5625 5.74284 23.5625 5.95833C23.5625 6.17382 23.4769 6.38048 23.3245 6.53286C23.1721 6.68523 22.9655 6.77083 22.75 6.77083Z" fill="white"/>
<path d="M16.25 6.77083H9.75C9.53538 6.76803 9.33035 6.68152 9.17858 6.52975C9.02681 6.37798 8.94031 6.17295 8.9375 5.95833V4.00833C8.95123 3.45239 9.17821 2.92301 9.57144 2.52977C9.96467 2.13654 10.4941 1.90957 11.05 1.89583H14.95C15.5152 1.90997 16.0525 2.14446 16.4472 2.54927C16.8419 2.95408 17.0627 3.49713 17.0625 4.0625V5.95833C17.0597 6.17295 16.9732 6.37798 16.8214 6.52975C16.6697 6.68152 16.4646 6.76803 16.25 6.77083ZM10.5625 5.14583H15.4375V4.0625C15.4375 3.93321 15.3861 3.80921 15.2947 3.71778C15.2033 3.62636 15.0793 3.575 14.95 3.575H11.05C10.9207 3.575 10.7967 3.62636 10.7053 3.71778C10.6139 3.80921 10.5625 3.93321 10.5625 4.0625V5.14583Z" fill="white"/>
<path d="M16.25 19.7708C16.0354 19.768 15.8303 19.6815 15.6786 19.5298C15.5268 19.378 15.4403 19.1729 15.4375 18.9583V10.2917C15.4375 10.0762 15.5231 9.86952 15.6755 9.71714C15.8278 9.56477 16.0345 9.47917 16.25 9.47917C16.4655 9.47917 16.6721 9.56477 16.8245 9.71714C16.9769 9.86952 17.0625 10.0762 17.0625 10.2917V18.9583C17.0597 19.1729 16.9732 19.378 16.8214 19.5298C16.6697 19.6815 16.4646 19.768 16.25 19.7708Z" fill="white"/>
<path d="M9.75 19.7708C9.53538 19.768 9.33035 19.6815 9.17858 19.5298C9.02681 19.378 8.94031 19.1729 8.9375 18.9583V10.2917C8.9375 10.0762 9.0231 9.86952 9.17548 9.71714C9.32785 9.56477 9.53451 9.47917 9.75 9.47917C9.96549 9.47917 10.1722 9.56477 10.3245 9.71714C10.4769 9.86952 10.5625 10.0762 10.5625 10.2917V18.9583C10.5597 19.1729 10.4732 19.378 10.3214 19.5298C10.1697 19.6815 9.96462 19.768 9.75 19.7708Z" fill="white"/>
<path d="M13 19.7708C12.7854 19.768 12.5803 19.6815 12.4286 19.5298C12.2768 19.378 12.1903 19.1729 12.1875 18.9583V10.2917C12.1875 10.0762 12.2731 9.86952 12.4255 9.71714C12.5778 9.56477 12.7845 9.47917 13 9.47917C13.2155 9.47917 13.4222 9.56477 13.5745 9.71714C13.7269 9.86952 13.8125 10.0762 13.8125 10.2917V18.9583C13.8097 19.1729 13.7232 19.378 13.5714 19.5298C13.4197 19.6815 13.2146 19.768 13 19.7708Z" fill="white"/>
</svg>
