<svg width="25" height="26" viewBox="0 0 25 26" fill="none" xmlns="http://www.w3.org/2000/svg">
<g clip-path="url(#clip0_163_1268)">
<path d="M6.25 0.5C5.39062 0.5 4.6875 1.20312 4.6875 2.0625V23.9375C4.6875 24.7969 5.39062 25.5 6.25 25.5H21.875C22.7344 25.5 23.4375 24.7969 23.4375 23.9375V6.75L17.1875 0.5H6.25Z" fill="#E2E5E7"/>
<path d="M18.75 6.75H23.4375L17.1875 0.5V5.1875C17.1875 6.04688 17.8906 6.75 18.75 6.75Z" fill="#B0B7BD"/>
<path d="M23.4375 11.4375L18.75 6.75H23.4375V11.4375Z" fill="#CAD1D8"/>
<path d="M20.3125 20.8125C20.3125 21.2422 19.9609 21.5938 19.5312 21.5938H2.34375C1.91406 21.5938 1.5625 21.2422 1.5625 20.8125V13C1.5625 12.5703 1.91406 12.2188 2.34375 12.2188H19.5312C19.9609 12.2188 20.3125 12.5703 20.3125 13V20.8125Z" fill="#F15642"/>
<path d="M4.96777 15.3023C4.96777 15.0961 5.13027 14.8711 5.39199 14.8711H6.83496C7.64746 14.8711 8.37871 15.4148 8.37871 16.457C8.37871 17.4445 7.64746 17.9945 6.83496 17.9945H5.79199V18.8195C5.79199 19.0945 5.61699 19.25 5.39199 19.25C5.18574 19.25 4.96777 19.0945 4.96777 18.8195V15.3023ZM5.79199 15.6578V17.2141H6.83496C7.25371 17.2141 7.58496 16.8445 7.58496 16.457C7.58496 16.0203 7.25371 15.6578 6.83496 15.6578H5.79199Z" fill="white"/>
<path d="M9.60215 19.25C9.3959 19.25 9.1709 19.1375 9.1709 18.8633V15.3149C9.1709 15.0906 9.3959 14.9274 9.60215 14.9274H11.0326C13.8873 14.9274 13.8248 19.25 11.0889 19.25H9.60215ZM9.9959 15.6899V18.4883H11.0326C12.7193 18.4883 12.7943 15.6899 11.0326 15.6899H9.9959Z" fill="white"/>
<path d="M14.8377 15.7399V16.7328H16.4307C16.6557 16.7328 16.8807 16.9578 16.8807 17.1758C16.8807 17.382 16.6557 17.5508 16.4307 17.5508H14.8377V18.8625C14.8377 19.0813 14.6822 19.2492 14.4635 19.2492C14.1885 19.2492 14.0205 19.0813 14.0205 18.8625V15.3141C14.0205 15.0899 14.1893 14.9266 14.4635 14.9266H16.6564C16.9314 14.9266 17.0939 15.0899 17.0939 15.3141C17.0939 15.5141 16.9314 15.7391 16.6564 15.7391H14.8377V15.7399Z" fill="white"/>
<path d="M19.5312 21.5938H4.6875V22.375H19.5312C19.9609 22.375 20.3125 22.0234 20.3125 21.5938V20.8125C20.3125 21.2422 19.9609 21.5938 19.5312 21.5938Z" fill="#CAD1D8"/>
</g>
<defs>
<clipPath id="clip0_163_1268">
<rect width="25" height="25" fill="white" transform="translate(0 0.5)"/>
</clipPath>
</defs>
</svg>
