<svg width="18" height="18" viewBox="0 0 18 18" fill="none" xmlns="http://www.w3.org/2000/svg">
<g clip-path="url(#clip0_123_2395)">
<path d="M11.9336 9.09225L18.0018 12.9285V5.094L11.9336 9.09225Z" fill="#2C5F8D"/>
<path d="M0 5.094V12.9285L6.06825 9.09225L0 5.094Z" fill="#2C5F8D"/>
<path d="M16.8764 2.8125H1.12641C0.565031 2.8125 0.119531 3.231 0.0351562 3.76988L9.00141 9.67725L17.9677 3.76988C17.8833 3.231 17.4378 2.8125 16.8764 2.8125Z" fill="#2C5F8D"/>
<path d="M10.9004 9.77175L9.30853 10.8203C9.21403 10.8821 9.10716 10.9125 8.99916 10.9125C8.89116 10.9125 8.78428 10.8821 8.68978 10.8203L7.09791 9.77063L0.0351562 14.238C0.121781 14.7724 0.565031 15.1875 1.12416 15.1875H16.8742C17.4333 15.1875 17.8765 14.7724 17.9632 14.238L10.9004 9.77175Z" fill="#2C5F8D"/>
</g>
<defs>
<clipPath id="clip0_123_2395">
<rect width="18" height="18" fill="white"/>
</clipPath>
</defs>
</svg>
