<svg width="22" height="22" viewBox="0 0 22 22" fill="none" xmlns="http://www.w3.org/2000/svg">
<path d="M8.85431 17.7011C10.8207 17.7012 12.7308 17.0451 14.2822 15.8368L20.1349 21.6895C20.5721 22.1117 21.2688 22.0996 21.691 21.6624C22.103 21.2359 22.103 20.5598 21.691 20.1333L15.8383 14.2806C18.8367 10.421 18.1385 4.86148 14.2788 1.86315C10.4191 -1.13518 4.8597 -0.436973 1.86137 3.42269C-1.13697 7.28235 -0.438759 12.8418 3.4209 15.8402C4.97477 17.0473 6.88663 17.7021 8.85431 17.7011ZM4.15172 4.15012C6.74891 1.55287 10.9598 1.55283 13.557 4.15002C16.1543 6.74722 16.1543 10.9581 13.5571 13.5553C10.9599 16.1526 6.74906 16.1526 4.15181 13.5554C4.15176 13.5554 4.15176 13.5554 4.15172 13.5553C1.55452 10.9771 1.53922 6.78154 4.11749 4.18434C4.12888 4.1729 4.14028 4.16151 4.15172 4.15012Z" fill="#2B5F8D"/>
</svg>
